<svg xmlns="http://www.w3.org/2000/svg" version="1.1" xmlns:xlink="http://www.w3.org/1999/xlink" xmlns:svgjs="http://svgjs.com/svgjs" viewBox="0 0 32 32"><g transform="matrix(1.3333333333333333,0,0,1.3333333333333333,0,0)"><path d="M 5.251,4.875c-0.207,0-0.375,0.168-0.375,0.375s0.168,0.375,0.375,0.375S5.626,5.457,5.626,5.25 S5.458,4.875,5.251,4.875L5.251,4.875 " stroke="#000000" fill="none" stroke-width="1.5" stroke-linecap="round" stroke-linejoin="round"></path><path d="M 10.501,5.25h6.75 " stroke="#000000" fill="none" stroke-width="1.5" stroke-linecap="round" stroke-linejoin="round"></path><path d="M 5.251,13.875c-0.207,0-0.375,0.168-0.375,0.375s0.168,0.375,0.375,0.375 s0.375-0.168,0.375-0.375S5.458,13.875,5.251,13.875L5.251,13.875 " stroke="#000000" fill="none" stroke-width="1.5" stroke-linecap="round" stroke-linejoin="round"></path><path d="M 5.251,9.75c-2.485,0-4.5-2.015-4.5-4.5s2.015-4.5,4.5-4.5h12 c2.485,0,4.5,2.015,4.5,4.5c0,1.246-0.517,2.436-1.427,3.287 " stroke="#000000" fill="none" stroke-width="1.5" stroke-linecap="round" stroke-linejoin="round"></path><path d="M 9.751,18.75h-4.5c-2.485,0-4.5-2.015-4.5-4.5s2.015-4.5,4.5-4.5H13.5 " stroke="#000000" fill="none" stroke-width="1.5" stroke-linecap="round" stroke-linejoin="round"></path><path d="M 10.501,14.25h0.75 " stroke="#000000" fill="none" stroke-width="1.5" stroke-linecap="round" stroke-linejoin="round"></path><path d="M 17.251,20.25c-0.207,0-0.375,0.168-0.375,0.375S17.044,21,17.251,21s0.375-0.168,0.375-0.375 S17.458,20.25,17.251,20.25L17.251,20.25 " stroke="#000000" fill="none" stroke-width="1.5" stroke-linecap="round" stroke-linejoin="round"></path><path d="M 17.251,18v-3 " stroke="#000000" fill="none" stroke-width="1.5" stroke-linecap="round" stroke-linejoin="round"></path><path d="M 23.064,20.682c0.439,0.876,0.084,1.942-0.792,2.38 c-0.247,0.123-0.519,0.188-0.795,0.188h-8.452c-0.98,0-1.774-0.794-1.775-1.773c0-0.276,0.064-0.548,0.188-0.795l4.226-8.451 c0.438-0.876,1.503-1.232,2.38-0.794c0.344,0.172,0.622,0.45,0.794,0.794L23.064,20.682z" stroke="#000000" fill="none" stroke-width="1.5" stroke-linecap="round" stroke-linejoin="round"></path></g></svg>
