<svg xmlns="http://www.w3.org/2000/svg" version="1.1"
xmlns:xlink="http://www.w3.org/1999/xlink" xmlns:svgjs="http://svgjs.com/svgjs"
viewBox="0 0 24 24"><g
transform="matrix(1,0,0,1,0,0)"><path d="M8.906 12.469 A2.625 5.25 0 1 0 14.156
12.469 A2.625 5.25 0 1 0 8.906 12.469 Z" fill="none" stroke="#000000"
stroke-linecap="round" stroke-linejoin="round" stroke-width="1.5"
transform="translate(-5.44 11.806) rotate(-45)"></path><path
d="M7.4,9.7.888,21.121a1.5,1.5,0,0,0,1.991,1.991L14.3,16.605" fill="none"
stroke="#000000" stroke-linecap="round" stroke-linejoin="round"
stroke-width="1.5"></path><path d="M15.773,7.7a.375.375,0,0,1,0,.531"
fill="none" stroke="#000000" stroke-linecap="round" stroke-linejoin="round"
stroke-width="1.5"></path><path d="M15.243,7.7a.375.375,0,0,1,.53,0" fill="none"
stroke="#000000" stroke-linecap="round" stroke-linejoin="round"
stroke-width="1.5"></path><path d="M15.243,8.227a.377.377,0,0,1,0-.531"
fill="none" stroke="#000000" stroke-linecap="round" stroke-linejoin="round"
stroke-width="1.5"></path><path d="M15.773,8.227a.375.375,0,0,1-.53,0"
fill="none" stroke="#000000" stroke-linecap="round" stroke-linejoin="round"
stroke-width="1.5"></path><path d="M20.016,3.454a.374.374,0,0,1,0,.53"
fill="none" stroke="#000000" stroke-linecap="round" stroke-linejoin="round"
stroke-width="1.5"></path><path d="M19.486,3.454a.374.374,0,0,1,.53,0"
fill="none" stroke="#000000" stroke-linecap="round" stroke-linejoin="round"
stroke-width="1.5"></path><path d="M19.486,3.984a.374.374,0,0,1,0-.53"
fill="none" stroke="#000000" stroke-linecap="round" stroke-linejoin="round"
stroke-width="1.5"></path><path d="M20.016,3.984a.375.375,0,0,1-.53,0"
fill="none" stroke="#000000" stroke-linecap="round" stroke-linejoin="round"
stroke-width="1.5"></path><path d="M20.016,14.06a.375.375,0,0,1,0,.531"
fill="none" stroke="#000000" stroke-linecap="round" stroke-linejoin="round"
stroke-width="1.5"></path><path d="M19.486,14.06a.375.375,0,0,1,.53,0"
fill="none" stroke="#000000" stroke-linecap="round" stroke-linejoin="round"
stroke-width="1.5"></path><path d="M19.486,14.591a.375.375,0,0,1,0-.531"
fill="none" stroke="#000000" stroke-linecap="round" stroke-linejoin="round"
stroke-width="1.5"></path><path d="M20.016,14.591a.375.375,0,0,1-.53,0"
fill="none" stroke="#000000" stroke-linecap="round" stroke-linejoin="round"
stroke-width="1.5"></path><path d="M8.349,4.514a.377.377,0,0,1,0,.531"
fill="none" stroke="#000000" stroke-linecap="round" stroke-linejoin="round"
stroke-width="1.5"></path><path d="M7.819,4.514a.375.375,0,0,1,.53,0"
fill="none" stroke="#000000" stroke-linecap="round" stroke-linejoin="round"
stroke-width="1.5"></path><path d="M7.819,5.045a.375.375,0,0,1,0-.531"
fill="none" stroke="#000000" stroke-linecap="round" stroke-linejoin="round"
stroke-width="1.5"></path><path d="M8.349,5.045a.375.375,0,0,1-.53,0"
fill="none" stroke="#000000" stroke-linecap="round" stroke-linejoin="round"
stroke-width="1.5"></path><path d="M12.857.75a13.836,13.836,0,0,1-.531,5.62"
fill="none" stroke="#000000" stroke-linecap="round" stroke-linejoin="round"
stroke-width="1.5"></path><path d="M16.569 2.128L16.039 4.779" fill="none"
stroke="#000000" stroke-linecap="round" stroke-linejoin="round"
stroke-width="1.5"></path><path d="M23.25,11.143a13.836,13.836,0,0,0-5.62.531"
fill="none" stroke="#000000" stroke-linecap="round" stroke-linejoin="round"
stroke-width="1.5"></path><path d="M21.872 7.431L19.221 7.961" fill="none"
stroke="#000000" stroke-linecap="round" stroke-linejoin="round"
stroke-width="1.5"></path></g></svg>
