<svg width="30" height="30" viewBox="-10 0 50 30" fill="none" xmlns="http://www.w3.org/2000/svg">
<path d="M51.2 4.70398H54.944V24.416H66.432V28H51.2V4.70398Z" fill="#6BAF65"/>
<path d="M75.1643 28.352C73.5643 28.352 72.1989 28.0426 71.0683 27.424C69.9376 26.8053 69.0736 25.952 68.4763 24.864C67.8789 23.7546 67.5803 22.5066 67.5803 21.12C67.5803 19.776 67.9216 18.56 68.6043 17.472C69.2869 16.3626 70.2043 15.488 71.3563 14.848C72.5083 14.1866 73.7989 13.856 75.2283 13.856C77.0843 13.856 78.6096 14.4 79.8043 15.488C81.0203 16.5546 81.8309 18.0693 82.2363 20.032L71.8363 23.552C72.6043 24.704 73.7349 25.28 75.2283 25.28C75.7829 25.28 76.3056 25.184 76.7963 24.992C77.3083 24.8 77.7989 24.544 78.2683 24.224L79.9003 26.88C79.1749 27.328 78.3963 27.6906 77.5643 27.968C76.7323 28.224 75.9323 28.352 75.1643 28.352ZM71.1003 20.928C71.1003 21.0986 71.1109 21.28 71.1323 21.472L78.2363 18.944C77.9803 18.3466 77.5963 17.824 77.0843 17.376C76.5723 16.9066 75.8576 16.672 74.9403 16.672C73.8096 16.672 72.8816 17.0666 72.1563 17.856C71.4523 18.6453 71.1003 19.6693 71.1003 20.928Z" fill="#6BAF65"/>
<path d="M89.5388 28.352C88.2588 28.352 87.1068 28.0853 86.0828 27.552C85.0588 27.0186 84.2374 26.2293 83.6188 25.184C83.0214 24.1386 82.7228 22.8266 82.7228 21.248C82.7228 19.712 83.0321 18.4 83.6508 17.312C84.2908 16.2026 85.1228 15.3493 86.1468 14.752C87.1921 14.1546 88.3228 13.856 89.5388 13.856C90.7974 13.856 91.8108 14.1013 92.5788 14.592C93.3681 15.0613 93.9974 15.6266 94.4668 16.288L94.7228 14.464H98.0188V28H94.4348V26.016C94.2001 26.2933 93.8588 26.6133 93.4108 26.976C92.9628 27.3386 92.4081 27.6586 91.7468 27.936C91.1068 28.2133 90.3708 28.352 89.5388 28.352ZM90.5308 25.408C91.4908 25.408 92.3121 25.152 92.9948 24.64C93.6774 24.128 94.1574 23.424 94.4348 22.528V19.584C94.1788 18.752 93.6881 18.08 92.9628 17.568C92.2374 17.056 91.3841 16.8 90.4028 16.8C89.6561 16.8 88.9734 16.9813 88.3548 17.344C87.7574 17.6853 87.2668 18.1866 86.8828 18.848C86.5201 19.488 86.3388 20.224 86.3388 21.056C86.3388 21.8666 86.5308 22.6026 86.9148 23.264C87.2988 23.9253 87.8001 24.448 88.4188 24.832C89.0588 25.216 89.7628 25.408 90.5308 25.408Z" fill="#6BAF65"/>
<path d="M104.28 14.464L104.536 17.6C104.92 16.832 105.442 16.1706 106.104 15.616C106.765 15.04 107.437 14.6026 108.12 14.304C108.824 14.0053 109.4 13.856 109.848 13.856L109.688 17.44C108.664 17.3546 107.768 17.536 107 17.984C106.253 18.432 105.666 19.04 105.24 19.808C104.834 20.5546 104.632 21.344 104.632 22.176V28H101.048V14.464H104.28Z" fill="#6BAF65"/>
<path d="M114.829 14.464L115.085 16.896C115.554 15.9786 116.247 15.2533 117.165 14.72C118.082 14.1653 119.17 13.888 120.429 13.888C121.687 13.888 122.733 14.272 123.565 15.04C124.418 15.7866 124.855 16.7573 124.877 17.952V28H121.293V19.232C121.25 18.5493 121.047 18.0053 120.685 17.6C120.343 17.1733 119.778 16.9493 118.989 16.928C117.879 16.928 116.962 17.408 116.237 18.368C115.533 19.3066 115.181 20.512 115.181 21.984V28H111.597V14.464H114.829Z" fill="#6BAF65"/>
<path d="M134.359 28.352C132.759 28.352 131.394 28.0426 130.263 27.424C129.133 26.8053 128.269 25.952 127.671 24.864C127.074 23.7546 126.775 22.5066 126.775 21.12C126.775 19.776 127.117 18.56 127.799 17.472C128.482 16.3626 129.399 15.488 130.551 14.848C131.703 14.1866 132.994 13.856 134.423 13.856C136.279 13.856 137.805 14.4 138.999 15.488C140.215 16.5546 141.026 18.0693 141.431 20.032L131.031 23.552C131.799 24.704 132.93 25.28 134.423 25.28C134.978 25.28 135.501 25.184 135.991 24.992C136.503 24.8 136.994 24.544 137.463 24.224L139.095 26.88C138.37 27.328 137.591 27.6906 136.759 27.968C135.927 28.224 135.127 28.352 134.359 28.352ZM130.295 20.928C130.295 21.0986 130.306 21.28 130.327 21.472L137.431 18.944C137.175 18.3466 136.791 17.824 136.279 17.376C135.767 16.9066 135.053 16.672 134.135 16.672C133.005 16.672 132.077 17.0666 131.351 17.856C130.647 18.6453 130.295 19.6693 130.295 20.928Z" fill="#6BAF65"/>
<path d="M146.27 14.464L146.526 17.6C146.91 16.832 147.432 16.1706 148.094 15.616C148.755 15.04 149.427 14.6026 150.11 14.304C150.814 14.0053 151.39 13.856 151.838 13.856L151.678 17.44C150.654 17.3546 149.758 17.536 148.99 17.984C148.243 18.432 147.656 19.04 147.23 19.808C146.824 20.5546 146.622 21.344 146.622 22.176V28H143.038V14.464H146.27Z" fill="#6BAF65"/>
<path d="M156.147 4.89598C156.275 5.49331 156.243 6.13331 156.051 6.81598C155.859 7.47731 155.571 8.10664 155.187 8.70398C154.803 9.27998 154.365 9.71731 153.875 10.016L152.051 9.18398C152.499 8.75731 152.861 8.15998 153.139 7.39198C153.416 6.62398 153.48 5.86665 153.331 5.11998L156.147 4.89598Z" fill="#6BAF65"/>
<path d="M161.824 28.288C160.8 28.288 159.819 28.1066 158.88 27.744C157.963 27.3813 157.184 26.848 156.544 26.144L158.08 24.128C158.678 24.704 159.264 25.1306 159.84 25.408C160.438 25.664 161.003 25.792 161.536 25.792C162.134 25.792 162.646 25.6853 163.072 25.472C163.52 25.2373 163.744 24.8533 163.744 24.32C163.744 23.8933 163.595 23.5626 163.296 23.328C162.998 23.072 162.614 22.8693 162.144 22.72C161.675 22.5493 161.184 22.3893 160.672 22.24C159.499 21.8773 158.624 21.344 158.048 20.64C157.472 19.936 157.184 19.1253 157.184 18.208C157.184 17.504 157.366 16.832 157.728 16.192C158.091 15.5306 158.635 14.9866 159.36 14.56C160.107 14.1333 161.056 13.92 162.208 13.92C163.211 13.92 164.096 14.0373 164.864 14.272C165.632 14.5066 166.347 14.88 167.008 15.392L165.632 17.536C165.248 17.1733 164.79 16.896 164.256 16.704C163.744 16.4906 163.275 16.3733 162.848 16.352C162.272 16.3306 161.792 16.448 161.408 16.704C161.024 16.96 160.832 17.3013 160.832 17.728C160.811 18.1546 160.95 18.496 161.248 18.752C161.568 19.008 161.974 19.2106 162.464 19.36C162.955 19.5093 163.446 19.6693 163.936 19.84C164.918 20.16 165.728 20.6186 166.368 21.216C167.008 21.792 167.328 22.6026 167.328 23.648C167.328 24.48 167.126 25.248 166.72 25.952C166.315 26.656 165.707 27.2213 164.896 27.648C164.086 28.0746 163.062 28.288 161.824 28.288Z" fill="#6BAF65"/>
<path d="M184.806 4.70398C187.174 4.70398 189.04 5.19464 190.406 6.17598C191.792 7.13598 192.486 8.59731 192.486 10.56C192.486 11.776 192.219 12.832 191.686 13.728C191.152 14.624 190.416 15.328 189.478 15.84C190.736 16.3733 191.739 17.1093 192.486 18.048C193.254 18.9653 193.638 20.0533 193.638 21.312C193.638 22.9333 193.254 24.2346 192.486 25.216C191.739 26.176 190.758 26.88 189.542 27.328C188.347 27.776 187.067 28 185.702 28H178.438V4.70398H184.806ZM185.414 14.624C186.523 14.624 187.334 14.304 187.846 13.664C188.379 13.0026 188.646 12.2346 188.646 11.36C188.646 10.2933 188.315 9.51464 187.654 9.02398C186.992 8.53331 186.096 8.28798 184.966 8.28798H182.182V14.624H185.414ZM185.542 24.544C186.715 24.544 187.718 24.288 188.55 23.776C189.382 23.2426 189.798 22.432 189.798 21.344C189.798 20.5333 189.574 19.904 189.126 19.456C188.678 19.008 188.102 18.688 187.398 18.496C186.715 18.304 186.011 18.208 185.286 18.208H182.182V24.544H185.542Z" fill="#6BAF65"/>
<path d="M195.938 3.03998H199.522V28H195.938V3.03998Z" fill="#6BAF65"/>
<path d="M201.398 21.088C201.398 19.7226 201.718 18.496 202.358 17.408C203.019 16.32 203.915 15.456 205.046 14.816C206.198 14.176 207.52 13.856 209.014 13.856C210.528 13.856 211.84 14.176 212.95 14.816C214.08 15.456 214.955 16.32 215.574 17.408C216.192 18.496 216.502 19.7226 216.502 21.088C216.502 22.4533 216.192 23.6906 215.574 24.8C214.955 25.888 214.08 26.752 212.95 27.392C211.819 28.032 210.496 28.352 208.982 28.352C207.51 28.352 206.198 28.064 205.046 27.488C203.915 26.8906 203.019 26.048 202.358 24.96C201.718 23.872 201.398 22.5813 201.398 21.088ZM205.014 21.12C205.014 21.9306 205.184 22.6666 205.526 23.328C205.867 23.968 206.326 24.48 206.902 24.864C207.499 25.2266 208.171 25.408 208.918 25.408C210.091 25.408 211.04 25.0026 211.766 24.192C212.491 23.36 212.854 22.336 212.854 21.12C212.854 19.904 212.491 18.88 211.766 18.048C211.04 17.216 210.091 16.8 208.918 16.8C208.171 16.8 207.499 17.0026 206.902 17.408C206.326 17.792 205.867 18.3146 205.526 18.976C205.184 19.616 205.014 20.3306 205.014 21.12Z" fill="#6BAF65"/>
<path d="M229.548 26.752C228.95 27.2426 228.214 27.6373 227.34 27.936C226.486 28.2133 225.622 28.352 224.748 28.352C223.254 28.352 221.942 28.064 220.812 27.488C219.681 26.912 218.796 26.0906 218.156 25.024C217.537 23.9573 217.228 22.688 217.228 21.216C217.228 19.744 217.558 18.4746 218.22 17.408C218.902 16.3413 219.788 15.5306 220.876 14.976C221.964 14.4 223.137 14.112 224.396 14.112C225.526 14.112 226.529 14.272 227.404 14.592C228.278 14.8906 229.036 15.3066 229.676 15.84L227.884 18.176C227.542 17.8986 227.094 17.6426 226.54 17.408C226.006 17.152 225.398 17.024 224.716 17.024C223.99 17.024 223.329 17.2053 222.732 17.568C222.156 17.9306 221.686 18.432 221.324 19.072C220.982 19.6906 220.812 20.4053 220.812 21.216C220.812 22.368 221.206 23.36 221.996 24.192C222.785 25.0026 223.809 25.408 225.068 25.408C226.113 25.408 227.009 25.1093 227.756 24.512L229.548 26.752Z" fill="#6BAF65"/>
<path d="M231.303 28V3.03998H234.887V19.36L241.671 14.144L243.847 16.064L238.919 19.904L244.423 28H240.263L236.423 21.856L234.887 23.072V28H231.303Z" fill="#6BAF65"/>
<path d="M17.4193 32.868C17.346 31.2816 17.3623 24.4737 17.4437 23.1186C17.517 21.8112 17.5605 19.5523 18 18.5C18.6268 17.0173 20.5 16 20.5 16C20.5 16 22.4496 14.7243 24.3217 13.688C25.038 13.2894 26.4299 12.5161 27.4148 11.9581C30.6951 10.1007 31.7451 9.52673 31.8346 9.52673C31.8916 9.52673 31.9486 9.60645 31.973 9.71008C32.0056 9.81372 32.0056 12.4045 31.9893 15.4737C31.9567 20.8865 31.9567 21.0698 31.7776 21.7634C31.3218 23.6128 30.5323 25.255 29.5474 26.4109C28.6683 27.4392 27.2113 28.627 26.1124 29.209C25.9334 29.3046 25.6566 29.4561 25.502 29.5438C25.3473 29.6394 24.3543 30.1975 23.3043 30.7874C22.2542 31.3852 20.5449 32.3498 19.5112 32.9318C18.4774 33.5217 17.4193 34 17.4193 34C17.4193 34 17.4518 33.5456 17.4193 32.868Z" fill="#FEA631"/>
<path d="M14.5807 32.868C14.6539 31.2816 14.6376 24.4737 14.5562 23.1186C14.483 21.8112 14.2795 20.9104 13.84 19.8581C13.2132 18.3754 12.4888 17.3231 11.2922 16.1513C10.462 15.3381 9.55035 14.7243 7.67822 13.688C6.96193 13.2894 5.57005 12.5161 4.58515 11.9581C1.30487 10.1007 0.254851 9.52673 0.165314 9.52673C0.108337 9.52673 0.051358 9.60645 0.026939 9.71008C-0.00561966 9.81372 -0.00562065 12.4045 0.0106587 15.4737C0.0432173 20.8865 0.0432178 21.0698 0.22229 21.7634C0.678112 23.6128 1.46766 25.255 2.45256 26.4109C3.33164 27.4392 4.78864 28.627 5.8875 29.209C6.06657 29.3046 6.34332 29.4561 6.49797 29.5438C6.65263 29.6394 7.64567 30.1975 8.69568 30.7874C9.7457 31.3852 11.455 32.3498 12.4888 32.9318C13.5225 33.5217 14.4016 34 14.4504 34C14.4993 34 14.5481 33.5456 14.5807 32.868V32.868Z" fill="#8EC18A"/>
<path d="M14.7829 13.1228C14.2619 13.0591 12.8863 12.7561 12.4224 12.6047C11.7142 12.3655 10.1921 11.6002 8.7758 10.7712C8.09207 10.3726 6.78972 9.63121 5.86994 9.11305C1.66173 6.75341 1.47452 6.63384 1.63731 6.44251C1.68615 6.38671 2.37802 5.97218 3.16757 5.52576C3.95712 5.07935 4.81178 4.59307 5.05597 4.44958C5.47923 4.21043 8.3444 2.58419 9.85837 1.73121C11.3154 0.910125 11.9584 0.655029 13.5619 0.24847C14.4573 0.0252617 14.6526 0.00134657 15.9631 0.00134657C17.1841 -0.00662517 17.4934 0.0172899 18.1201 0.168753C19.9353 0.615171 20.733 0.957955 23.3702 2.47259C24.29 2.99075 25.5191 3.68429 26.097 4.01113C26.6831 4.33 27.5214 4.80831 27.9691 5.07137C28.4168 5.33444 29.1168 5.72506 29.5157 5.94029C30.2238 6.32294 30.4843 6.52223 30.411 6.64181C30.3703 6.71355 29.1168 7.43898 28.2133 7.91729C27.8633 8.10861 27.0086 8.58691 26.3249 8.9855C23.3702 10.7154 20.8225 12.1025 20.0411 12.4213C18.6655 12.9873 16.2806 13.3062 14.7829 13.1228Z" fill="#6BAF65"/>
</svg>
